# Blender v3.2.1 OBJ File: ''
# www.blender.org
mtllib cubeRetro.mtl
o Cube.001
v -100.000000 100.000015 -99.999985
v 100.000000 99.999985 100.000015
v 100.000000 100.000015 -99.999985
v -100.000000 -100.000015 99.999985
v 100.000000 -100.000015 99.999985
v -100.000000 99.999985 100.000015
v -100.000000 -99.999985 -100.000015
v 100.000000 -99.999985 -100.000015
vt 1.000000 0.000000
vt 0.666664 0.333336
vt 0.666664 0.000000
vt 0.000000 0.000000
vt 0.333336 0.333336
vt 0.000000 0.333336
vt 0.000000 0.666672
vt 0.333336 0.333336
vt 0.333336 0.666672
vt 0.666672 0.000000
vt 0.333336 0.000000
vt 0.666672 0.333336
vt 0.333336 0.666672
vt 0.333336 0.333336
vt 0.000000 0.666664
vt 0.333336 1.000000
vt 0.000000 1.000000
vt 1.000000 0.333336
vt 0.333336 0.000000
vt 0.000000 0.333336
vt 0.666672 0.333336
vt 0.666672 0.666672
vt 0.333336 0.666664
vn -0.5774 0.5774 -0.5774
vn 0.5774 0.5774 0.5774
vn 0.5774 0.5774 -0.5774
vn -0.5774 -0.5774 0.5774
vn 0.5774 -0.5774 0.5774
vn -0.5774 0.5774 0.5774
vn -0.5774 -0.5774 -0.5774
vn 0.5774 -0.5774 -0.5774
usemtl Material.001
s 1
f 1/1/1 2/2/2 3/3/3
f 2/4/2 4/5/4 5/6/5
f 6/7/6 7/8/7 4/9/4
f 8/10/8 4/5/4 7/11/7
f 3/12/3 5/13/5 8/14/8
f 1/15/1 8/16/8 7/17/7
f 1/1/1 6/18/6 2/2/2
f 2/4/2 6/19/6 4/5/4
f 6/7/6 1/20/1 7/8/7
f 8/10/8 5/21/5 4/5/4
f 3/12/3 2/22/2 5/13/5
f 1/15/1 3/23/3 8/16/8
